<?xml version="1.0" encoding="UTF-8" standalone="no"?>
<!-- Created with Inkscape (http://www.inkscape.org/) -->

<svg
   xmlns:dc="http://purl.org/dc/elements/1.1/"
   xmlns:cc="http://creativecommons.org/ns#"
   xmlns:rdf="http://www.w3.org/1999/02/22-rdf-syntax-ns#"
   xmlns:svg="http://www.w3.org/2000/svg"
   xmlns="http://www.w3.org/2000/svg"
   xmlns:sodipodi="http://sodipodi.sourceforge.net/DTD/sodipodi-0.dtd"
   xmlns:inkscape="http://www.inkscape.org/namespaces/inkscape"
   width="33.866669mm"
   height="23.545401mm"
   viewBox="0 0 33.866669 23.545401"
   version="1.1"
   id="svg8"
   inkscape:version="0.92.4 (unknown)"
   sodipodi:docname="blank-image.svg">
  <defs
     id="defs2" />
  <sodipodi:namedview
     id="base"
     pagecolor="#ffffff"
     bordercolor="#666666"
     borderopacity="1.0"
     inkscape:pageopacity="0.0"
     inkscape:pageshadow="2"
     inkscape:zoom="0.35"
     inkscape:cx="-640"
     inkscape:cy="-473.5292"
     inkscape:document-units="mm"
     inkscape:current-layer="layer1"
     showgrid="false"
     fit-margin-top="0"
     fit-margin-left="0"
     fit-margin-right="0"
     fit-margin-bottom="0"
     inkscape:window-width="1920"
     inkscape:window-height="1053"
     inkscape:window-x="0"
     inkscape:window-y="0"
     inkscape:window-maximized="1"
     showguides="false" />
  <metadata
     id="metadata5">
    <rdf:RDF>
      <cc:Work
         rdf:about="">
        <dc:format>image/svg+xml</dc:format>
        <dc:type
           rdf:resource="http://purl.org/dc/dcmitype/StillImage" />
        <dc:title />
      </cc:Work>
    </rdf:RDF>
  </metadata>
  <g
     inkscape:label="Capa 1"
     inkscape:groupmode="layer"
     id="layer1">
    <path
       style="fill:#ffffff;stroke-width:0.16126983;fill-opacity:1"
       d="M 0.25342666,23.29197 C 0.02787847,23.06642 0,21.79935 0,11.7727 0,1.74605 0.0278543,0.47898 0.25342666,0.25342 0.4804931,0.02636 2.2151917,0 16.933337,0 31.651475,0 33.386174,0.0263 33.61324,0.25342 c 0.225548,0.22556 0.253427,1.49263 0.253427,11.51928 0,10.02665 -0.02786,11.29372 -0.253427,11.51927 -0.227066,0.22707 -1.961765,0.25343 -16.679903,0.25343 -14.7181453,0 -16.4528439,-0.0263 -16.67991034,-0.25343 z M 32.495872,11.7727 V 1.3708 H 16.933337 1.3707944 l -0.040351,10.24063 c -0.022186,5.63235 -0.00616,10.33171 0.035535,10.44303 0.060343,0.16081 3.2659687,0.19395 15.6028806,0.16127 L 32.49583,22.17463 Z M 2.531985,21.07341 C 2.602922,20.95559 4.0247276,19.0022 5.6915618,16.73253 8.9475511,12.29897 9.186644,12.07034 10.096461,12.5203 c 0.264472,0.1308 1.000015,0.96678 1.697432,1.92921 l 1.230719,1.69839 2.224282,-3.03427 c 1.22335,-1.66884 2.621804,-3.57855 3.107675,-4.24379 0.485869,-0.66523 1.025589,-1.33652 1.199377,-1.49174 0.468748,-0.41868 1.166379,-0.35326 1.719735,0.16127 0.368628,0.34276 9.504407,12.63736 10.067546,13.54854 0.09777,0.1582 -2.896822,0.19971 -14.408392,0.19971 -12.0393783,0 -14.5096926,-0.0367 -14.40285,-0.21421 z M 4.3526447,8.02318 C 3.1250098,7.18765 2.7913012,6.05307 3.4169227,4.84179 4.6196289,2.51319 7.964249,3.36251 7.964249,5.99652 c 0,1.28781 -1.1067415,2.38951 -2.4004383,2.38951 -0.4376441,0 -0.8670288,-0.12864 -1.211166,-0.36285 z"
       id="path826"
       inkscape:connector-curvature="0" />
  </g>
</svg>
