<?xml version="1.0" encoding="UTF-8" standalone="no"?>
<svg
   xmlns:dc="http://purl.org/dc/elements/1.1/"
   xmlns:cc="http://creativecommons.org/ns#"
   xmlns:rdf="http://www.w3.org/1999/02/22-rdf-syntax-ns#"
   xmlns:svg="http://www.w3.org/2000/svg"
   xmlns="http://www.w3.org/2000/svg"
   xmlns:sodipodi="http://sodipodi.sourceforge.net/DTD/sodipodi-0.dtd"
   xmlns:inkscape="http://www.inkscape.org/namespaces/inkscape"
   version="1.1"
   x="0px"
   y="0px"
   viewBox="0 0 24 24"
   id="svg10"
   sodipodi:docname="logout-24px.svg"
   width="24"
   height="24"
   inkscape:version="0.92.5 (0.92.5+68)">
  <metadata
     id="metadata16">
    <rdf:RDF>
      <cc:Work
         rdf:about="">
        <dc:format>image/svg+xml</dc:format>
        <dc:type
           rdf:resource="http://purl.org/dc/dcmitype/StillImage" />
        <dc:title />
      </cc:Work>
    </rdf:RDF>
  </metadata>
  <defs
     id="defs14" />
  <sodipodi:namedview
     pagecolor="#ffffff"
     bordercolor="#666666"
     borderopacity="1"
     objecttolerance="10"
     gridtolerance="10"
     guidetolerance="10"
     inkscape:pageopacity="0"
     inkscape:pageshadow="2"
     inkscape:window-width="1920"
     inkscape:window-height="1053"
     id="namedview12"
     showgrid="false"
     inkscape:zoom="10.680141"
     inkscape:cx="-17.104753"
     inkscape:cy="20.007539"
     inkscape:window-x="0"
     inkscape:window-y="0"
     inkscape:window-maximized="1"
     inkscape:current-layer="svg10" />
  <path
     id="path2"
     style="color:#000000;font-style:normal;font-variant:normal;font-weight:normal;font-stretch:normal;font-size:medium;line-height:normal;font-family:Sans;-inkscape-font-specification:Sans;text-indent:0;text-align:start;text-decoration:none;text-decoration-line:none;letter-spacing:normal;word-spacing:normal;text-transform:none;writing-mode:lr-tb;direction:ltr;baseline-shift:baseline;text-anchor:start;display:inline;overflow:visible;visibility:visible;opacity:1;fill:#000000;fill-opacity:1;stroke:none;stroke-width:5;marker:none;enable-background:accumulate"
     d="m 14.872919,6.4381893 a 0.66670096,0.66670096 0 0 0 -0.416646,1.1596659 l 4.069246,3.7359298 H 8.2412961 c -0.023125,-0.0011 -0.046317,-0.0011 -0.069442,0 -0.3490908,0.01811 -0.650095,0.352261 -0.6319133,0.701355 0.018183,0.349072 0.35227,0.650158 0.7013542,0.631913 h 10.284224 l -4.069246,3.728986 a 0.66670096,0.66670096 0 1 0 0.902734,0.979119 l 5.333074,-4.888651 a 0.66670096,0.66670096 0 0 0 0,-0.979119 L 15.359007,6.6187361 A 0.66670096,0.66670096 0 0 0 14.872919,6.4381893 Z M 9.1629405,2.0009048 a 0.66753787,0.66753787 0 1 1 -0.069441,1.3332685 h -4.66644 V 20.666665 h 4.66644 a 0.66670096,0.66670096 0 1 1 0,1.333268 H 3.7604251 A 0.66670096,0.66670096 0 0 1 3.0937908,21.333299 V 2.6675391 A 0.66670096,0.66670096 0 0 1 3.7604251,2.0009048 h 5.3330743 a 0.66670096,0.66670096 0 0 1 0.069441,0 z"
     inkscape:connector-curvature="0" />
</svg>
