<?xml version="1.0" encoding="UTF-8" standalone="no"?>
<svg
   xmlns:dc="http://purl.org/dc/elements/1.1/"
   xmlns:cc="http://creativecommons.org/ns#"
   xmlns:rdf="http://www.w3.org/1999/02/22-rdf-syntax-ns#"
   xmlns:svg="http://www.w3.org/2000/svg"
   xmlns="http://www.w3.org/2000/svg"
   xmlns:sodipodi="http://sodipodi.sourceforge.net/DTD/sodipodi-0.dtd"
   xmlns:inkscape="http://www.inkscape.org/namespaces/inkscape"
   version="1.1"
   x="0px"
   y="0px"
   viewBox="0 0 24 24"
   id="svg10"
   sodipodi:docname="logout-24px.svg"
   width="24"
   height="24"
   inkscape:version="0.92.3 (2405546, 2018-03-11)">
  <metadata
     id="metadata16">
    <rdf:RDF>
      <cc:Work
         rdf:about="">
        <dc:format>image/svg+xml</dc:format>
        <dc:type
           rdf:resource="http://purl.org/dc/dcmitype/StillImage" />
        <dc:title></dc:title>
      </cc:Work>
    </rdf:RDF>
  </metadata>
  <defs
     id="defs14" />
  <sodipodi:namedview
     pagecolor="#ffffff"
     bordercolor="#666666"
     borderopacity="1"
     objecttolerance="10"
     gridtolerance="10"
     guidetolerance="10"
     inkscape:pageopacity="0"
     inkscape:pageshadow="2"
     inkscape:window-width="1366"
     inkscape:window-height="740"
     id="namedview12"
     showgrid="false"
     inkscape:zoom="10.680141"
     inkscape:cx="-4.838997"
     inkscape:cy="20.007539"
     inkscape:window-x="1920"
     inkscape:window-y="0"
     inkscape:window-maximized="1"
     inkscape:current-layer="svg10" />
  <path
     id="path2"
     style="color:#000000;font-style:normal;font-variant:normal;font-weight:normal;font-stretch:normal;font-size:medium;line-height:normal;font-family:Sans;-inkscape-font-specification:Sans;text-indent:0;text-align:start;text-decoration:none;text-decoration-line:none;letter-spacing:normal;word-spacing:normal;text-transform:none;writing-mode:lr-tb;direction:ltr;baseline-shift:baseline;text-anchor:start;display:inline;overflow:visible;visibility:visible;opacity:1;fill:#000000;fill-opacity:1;stroke:none;stroke-width:6;marker:none;enable-background:accumulate"
     d="m 15.447503,5.3258282 a 0.80004116,0.80004116 0 0 0 -0.499975,1.3915991 l 4.883095,4.4831157 H 7.4895556 c -0.02775,-0.0013 -0.05558,-0.0013 -0.08333,0 -0.418909,0.02173 -0.780114,0.422713 -0.758296,0.841626 0.02182,0.418886 0.422724,0.780189 0.841625,0.758296 H 19.830623 l -4.883095,4.474783 a 0.80004116,0.80004116 0 1 0 1.08328,1.174943 l 6.399689,-5.866382 a 0.80004116,0.80004116 0 0 0 0,-1.174943 L 16.030808,5.5424843 A 0.80004116,0.80004116 0 0 0 15.447503,5.3258282 Z M 8.5955289,0.0010867 A 0.80104545,0.80104545 0 1 1 8.5121996,1.601009 H 2.9124715 v 20.79899 h 5.5997281 a 0.80004116,0.80004116 0 1 1 0,1.599922 H 2.1125104 A 0.80004116,0.80004116 0 0 1 1.3125492,23.19996 V 0.80104786 A 0.80004116,0.80004116 0 0 1 2.1125104,0.0010867 h 6.3996892 a 0.80004116,0.80004116 0 0 1 0.083329,0 z" />
</svg>
